<?xml version="1.0" encoding="UTF-8"?>
<!DOCTYPE svg PUBLIC "-//W3C//DTD SVG 1.1//EN" "http://www.w3.org/Graphics/SVG/1.1/DTD/svg11.dtd">
<!-- Creator: CorelDRAW 2021 (64-Bit) -->
<svg xmlns="http://www.w3.org/2000/svg" xml:space="preserve" width="1.8694in" height="0.861953in" version="1.1" style="shape-rendering:geometricPrecision; text-rendering:geometricPrecision; image-rendering:optimizeQuality; fill-rule:evenodd; clip-rule:evenodd"
viewBox="0 0 872.53 402.31"
 xmlns:xlink="http://www.w3.org/1999/xlink"
 xmlns:xodm="http://www.corel.com/coreldraw/odm/2003">
 <defs>
  <style type="text/css">
   <![CDATA[
    .fil0 {fill:black}
   ]]>
  </style>
 </defs>
 <g id="Layer_x0020_1">
  <metadata id="CorelCorpID_0Corel-Layer"/>
  <path class="fil0" d="M799.03 81.33c8.31,0 15.29,9.06 17.31,21.34 10.86,-6.08 22.3,-6.26 27.48,0.23 5.18,6.5 2.45,17.6 -5.89,26.84 11.52,4.7 18.79,13.53 16.95,21.63 -1.85,8.1 -12.23,12.89 -24.65,12.13 3.51,11.94 1.15,23.13 -6.34,26.73 -7.49,3.6 -17.71,-1.53 -24.85,-11.71 -7.15,10.18 -17.37,15.31 -24.85,11.71 -7.48,-3.6 -9.85,-14.79 -6.34,-26.73 -12.42,0.76 -22.8,-4.03 -24.65,-12.13 -1.85,-8.1 5.42,-16.93 16.94,-21.62 -8.34,-9.24 -11.06,-20.34 -5.89,-26.84 5.18,-6.5 16.62,-6.31 27.47,-0.23 2.02,-12.28 9.01,-21.34 17.32,-21.34zm8.13 128.26c3.49,-0.35 6.94,-0.55 10.36,-0.55 20.25,0 38.56,6.63 55.01,19.86l-24.67 36.15c-7.72,-8.19 -17.81,-12.26 -30.22,-12.26 -17.81,1.36 -28.55,12.76 -32.27,34.18 10.16,-2.48 20.91,-3.73 32.27,-3.73 8.77,0 18,0.74 27.62,2.25l-3.76 42.17c-5.24,-0.39 -10.4,-0.54 -15.56,-0.54 -12.41,0 -24.82,1.13 -37.16,3.41 2.95,16.18 15.28,24.29 37.05,24.29 6.44,0 13.73,-0.7 21.92,-2.14l15.13 46.01c-12.14,1.75 -23.36,2.64 -33.64,2.64 -61.26,-4.06 -89.02,-38.81 -94.17,-77.66 -6.98,34.46 -16.75,57.94 -28.95,61.15 -2.76,0.73 -5.43,1.17 -8.07,1.17 -17.65,0 -31.03,-17.23 -40.11,-51.59 -8.88,-33.36 -14.94,-50.05 -18.19,-50.05 -0.62,0 -1.67,2.06 -3.18,6.17 -1.51,4.07 -2.29,13.77 -2.29,29.09 0,15.36 2.02,37.92 11.56,57.2l-44.09 -3.67c-6.28,-29.99 -6.77,-42.24 -6.77,-63.54 0,-20.68 2.99,-37.2 8.96,-49.54 11.52,-23.82 24.32,-35.69 38.41,-35.69 28.53,0 35.38,30.19 44.88,54.43 4.93,21.3 8.84,31.93 11.71,31.93 1.91,0 3.38,-4.46 4.35,-13.38 2.05,-18.81 4.07,-49.95 4.07,-59.88 0,-2.06 0.05,-1.09 -0.03,-2.83l38.78 -6.47c-0.67,12.44 -1.55,24.6 -2.66,36.3 12.13,-28.92 35.22,-51.77 63.72,-54.89zm-248.01 12.05l37.87 12.64c-6.18,22.44 -10.05,43.68 -11.63,63.72 -2.66,33.59 -2.14,50 8.1,76.96l-46.53 13.78c-7.05,-30.33 -6.77,-50.15 -4.17,-83 2.16,-27.17 7.61,-55.23 16.37,-84.1zm-188.19 159.75l44.22 -19.86c-6.52,-22.81 -13.27,-51.48 -13.27,-64.12 0,-5.39 0.54,-9.85 1.71,-13.42 1.82,-5.55 4.04,-8.3 6.71,-8.3 3.1,0 7.72,5.43 13.93,16.25 6.17,10.82 15.32,16.26 27.43,16.26 12.41,0 21.22,-6.01 26.38,-18.08 2.41,-5.59 4.54,-8.42 6.36,-8.42 2.14,0 3.88,3.76 5.32,11.25 0.54,2.68 0.81,6.09 0.81,10.24 0,17.57 -2.18,36.73 -11.29,80.68l47.98 16.95c5.67,-36.78 6.14,-56.56 6.14,-82.62 0,-21.07 -2.99,-42.98 -8.96,-65.76 -5.97,-22.77 -16.76,-36.73 -32.27,-41.89 -2.05,-0.66 -4.03,-1.01 -6.01,-1.01 -13.34,0 -25.99,14.9 -37.98,44.65 -15.9,-24.9 -30.37,-37.4 -43.41,-37.4 -12.28,0 -22.23,7.53 -29.85,22.6l3.49 -20.68c-66.63,-4.42 -106.6,1.84 -117.55,29.22 -3.99,9.98 -4.94,20.62 -2.85,31.91 2.09,11.28 10.27,22.99 24.52,35.21 14.26,12.18 20.57,20.34 18.9,24.52 -1.01,2.52 -4.47,4.06 -10.41,4.61 -8.66,0.8 -18.38,-0.77 -29.22,-4.66 -8.79,-53.02 -25.76,-127.76 -55.53,-129.9 -1.28,-0.03 -2.52,-0.07 -3.72,-0.07 -24.24,0 -43.46,17.91 -57.64,53.72 -8.41,21.32 -15.72,44.08 -21.92,68.3 -0.4,-10.64 -1.57,-22.49 -3.51,-35.56 -3.7,-24.96 -10.18,-54.29 -19.45,-87.95l-51.93 22.3c8.64,24.22 30.37,76.86 29.51,102.86 -1.72,51.91 -38.95,1.47 -48.57,-18.66l-29.03 36.99c20.77,38.37 50.15,54.97 88.13,49.85l2.92 -0.4c10.26,-1.64 18.05,-7.19 23.39,-16.65l36.11 16.46c4.12,-20.24 7.37,-33.7 9.7,-40.41 8.86,3.36 18.33,5.03 28.42,5.03 11.75,0 24.28,-2.26 37.6,-6.75 2.17,7.22 4.26,17.91 6.2,32.06l14.9 -5.35c23.28,6.4 40.53,8.12 58.93,7.39 21.9,-0.87 37.6,-13.16 47.08,-36.87 9.48,-23.7 3.03,-43.53 -19.33,-59.49 -22.33,-15.95 -32.18,-27.24 -29.53,-33.87 0.81,-2.01 2.63,-3.69 5.43,-5.01 11.43,-5.38 30.69,-0.59 55.73,5.78 -3.16,10.94 -5.27,22.59 -6.31,34.97 -0.39,4.11 -0.58,8.3 -0.58,12.61 0,17.81 6.41,48.6 12.15,70.48zm-154.72 -60.08c-5.52,0.73 -10.97,1.06 -16.44,1.06 -9.93,0 -19.82,-1.21 -29.67,-3.61 4.6,-23.53 10.32,-40.34 17.19,-50.44 3.43,-4.92 6.5,-7.37 9.21,-7.37 2.99,0 6.1,3.98 9.42,11.89 3.28,7.95 6.72,24.11 10.28,48.47zm455.02 -207.2c-8.59,-7.81 -17.25,-18.94 -25.97,-33.39 -1.55,15 -7.98,27.77 -19.29,38.31 -15.62,14.49 -29.35,23.29 -41.23,26.38 -3.14,0.82 -6.16,1.23 -9.08,1.27l0.24 0.8c2.94,9.89 14.18,26.01 33.65,48.39l-46.04 18.05c-24.99,-46.88 -34.68,-72.12 -44.41,-104.82 -0.42,-1.4 -0.81,-2.78 -1.2,-4.15 -6.86,18.81 -18.91,32.07 -36.17,39.78 -20.11,8.93 -36.29,12.84 -48.57,11.7 -3.25,-0.3 -6.22,-0.97 -8.97,-1.96l-0.08 0.89c-1.01,10.93 1.66,12.53 11.33,41.82l-49.33 8.06c-0.33,-3.37 -0.64,-6.59 -0.92,-9.68l-27.84 13.11c-2.79,-21.53 -5.16,-35.84 -7.06,-42.98 -9.08,3.57 -18.66,5.35 -28.75,5.35 -11.75,0 -24.13,-2.4 -37.16,-7.17 -2.64,7.68 -5.43,19.04 -8.3,34.09l-26.87 -10.51c0.18,1.77 0.38,3.52 0.58,5.24l-42.52 10.94c-0.85,-14.02 -1.72,-38.62 -2.92,-61.64 -17.7,2.92 -35.19,1.83 -52.18,-5.44l0 2.93c0,13.5 -2.47,41.28 -7.2,71.25l-38.52 -11.08c2.13,-20.83 3.18,-43 3.18,-66.49 0,-34.1 -2.21,-71.03 -6.67,-110.72l45.78 -14.39 3.33 73.84c16.78,7.45 35,10.78 52.52,5.4 0.58,-27.37 2.14,-51.35 4.98,-84.12l46.12 3.32c-5.9,49.96 -8.88,93.24 -8.88,129.89 0,7.32 0.12,14.36 0.37,21.14 11.5,-56.11 34.5,-149.75 67,-152.21 1.28,-0.04 2.52,-0.08 3.73,-0.08 24.24,0 42.28,19.05 54.11,57.14 4.67,15.11 8.82,30.91 12.43,47.4 0.36,-4.1 0.76,-8.39 1.19,-13 1.27,-13.71 3.15,-26.04 5.68,-36.91 8.8,-38.22 37.86,-55.04 87.19,-50.47 1.9,0.18 3.86,0.4 5.9,0.66 16.39,4.07 27.77,12.59 34.12,25.53 9.81,-15.28 28.56,-26.52 56.29,-33.73 1.83,-0.48 3.75,-0.94 5.75,-1.38 22.95,-2.59 40.09,5.21 51.37,23.41l33.51 -14.62c7.78,36.19 17.1,61.11 28.06,74.73 14.19,-20.02 26.74,-43.23 37.66,-69.69l38.38 21.81c-35.32,79.01 -72.78,123.4 -138.17,168.53l-33.93 -42.32c42.09,-16.31 54.79,-26.72 73.8,-48.22zm-92.86 -69.81c-28.37,7.37 -28.15,31.99 -22.21,41.61 4.73,7.66 15.67,25.03 32.25,12.43 26.05,-19.8 16.99,-61.06 -10.04,-54.04zm-95.72 32.38c2.61,-28.34 -46.39,-46.22 -51.27,6.37 -1.72,18.56 5.74,30.34 25.41,23.9 17.19,-5.63 24.24,-12.65 25.71,-28.56l0.16 -1.7zm-185.8 47.43c5.47,0.78 10.9,1.12 16.37,1.12 9.93,0 19.9,-1.28 29.9,-3.84 -3.06,-25.02 -7.68,-42.9 -13.88,-53.65 -3.1,-5.24 -6.02,-7.83 -8.73,-7.83 -2.99,0 -6.36,4.23 -10.2,12.65 -3.8,8.46 -8.3,25.64 -13.46,51.56z"/>
 </g>
</svg>
